<svg width="170" height="53" viewBox="0 0 170 53" fill="none" xmlns="http://www.w3.org/2000/svg">
<path d="M33.1241 26.6783C31.8066 19.9616 38.1003 16.0224 38.1003 16.0224C38.1003 16.0224 35.6482 12.4288 31.5272 11.5043C27.4081 10.5778 25.3466 11.7354 23.2891 12.6036C21.2296 13.474 20.2019 13.474 20.2019 13.474C17.2299 13.474 15.0573 10.2863 9.39472 11.7375C5.49362 12.7348 1.38689 17.2966 0.644897 22.7412C-0.0970941 28.1878 1.50409 35.1376 4.59126 40.5239C7.67843 45.9143 10.8232 47.9401 13.0553 47.9984C15.2875 48.0546 17.5156 46.3786 20.2019 45.9705C22.8904 45.5666 24.545 46.9574 27.182 47.7091C29.8088 48.4586 30.7296 47.7632 33.7551 45.1564C36.7888 42.5497 39.5349 35.0731 39.5349 35.0731C39.5349 35.0731 34.4417 33.3991 33.1241 26.6783Z" fill="white"/>
<path d="M27.235 6.9522C30.3799 4.2238 29.3146 0 29.3146 0C29.3146 0 24.8984 0.659983 21.9394 3.28095C18.9827 5.90383 19.4721 10.0465 19.4721 10.0465C19.4721 10.0465 24.0899 9.67884 27.235 6.9522Z" fill="white"/>
<path d="M65.5326 30.28H58.2366L56.8926 34H54.5886L60.6366 17.368H63.1566L69.1806 34H66.8766L65.5326 30.28ZM64.9086 28.504L61.8846 20.056L58.8606 28.504H64.9086ZM74.0005 23.272C74.4325 22.52 75.0725 21.896 75.9205 21.4C76.7845 20.888 77.7845 20.632 78.9205 20.632C80.0885 20.632 81.1445 20.912 82.0885 21.472C83.0485 22.032 83.8005 22.824 84.3445 23.848C84.8885 24.856 85.1605 26.032 85.1605 27.376C85.1605 28.704 84.8885 29.888 84.3445 30.928C83.8005 31.968 83.0485 32.776 82.0885 33.352C81.1445 33.928 80.0885 34.216 78.9205 34.216C77.8005 34.216 76.8085 33.968 75.9445 33.472C75.0965 32.96 74.4485 32.328 74.0005 31.576V40.24H71.8165V20.848H74.0005V23.272ZM82.9285 27.376C82.9285 26.384 82.7285 25.52 82.3285 24.784C81.9285 24.048 81.3845 23.488 80.6965 23.104C80.0245 22.72 79.2805 22.528 78.4645 22.528C77.6645 22.528 76.9205 22.728 76.2325 23.128C75.5605 23.512 75.0165 24.08 74.6005 24.832C74.2005 25.568 74.0005 26.424 74.0005 27.4C74.0005 28.392 74.2005 29.264 74.6005 30.016C75.0165 30.752 75.5605 31.32 76.2325 31.72C76.9205 32.104 77.6645 32.296 78.4645 32.296C79.2805 32.296 80.0245 32.104 80.6965 31.72C81.3845 31.32 81.9285 30.752 82.3285 30.016C82.7285 29.264 82.9285 28.384 82.9285 27.376ZM90.2192 23.272C90.6512 22.52 91.2912 21.896 92.1392 21.4C93.0032 20.888 94.0032 20.632 95.1392 20.632C96.3072 20.632 97.3632 20.912 98.3072 21.472C99.2672 22.032 100.019 22.824 100.563 23.848C101.107 24.856 101.379 26.032 101.379 27.376C101.379 28.704 101.107 29.888 100.563 30.928C100.019 31.968 99.2672 32.776 98.3072 33.352C97.3632 33.928 96.3072 34.216 95.1392 34.216C94.0192 34.216 93.0272 33.968 92.1632 33.472C91.3152 32.96 90.6672 32.328 90.2192 31.576V40.24H88.0352V20.848H90.2192V23.272ZM99.1472 27.376C99.1472 26.384 98.9472 25.52 98.5472 24.784C98.1472 24.048 97.6032 23.488 96.9152 23.104C96.2432 22.72 95.4992 22.528 94.6832 22.528C93.8832 22.528 93.1392 22.728 92.4512 23.128C91.7792 23.512 91.2352 24.08 90.8192 24.832C90.4192 25.568 90.2192 26.424 90.2192 27.4C90.2192 28.392 90.4192 29.264 90.8192 30.016C91.2352 30.752 91.7792 31.32 92.4512 31.72C93.1392 32.104 93.8832 32.296 94.6832 32.296C95.4992 32.296 96.2432 32.104 96.9152 31.72C97.6032 31.32 98.1472 30.752 98.5472 30.016C98.9472 29.264 99.1472 28.384 99.1472 27.376ZM115.308 34.216C114.3 34.216 113.396 34.048 112.596 33.712C111.796 33.36 111.164 32.88 110.7 32.272C110.236 31.648 109.98 30.936 109.932 30.136H112.188C112.252 30.792 112.556 31.328 113.1 31.744C113.66 32.16 114.388 32.368 115.284 32.368C116.116 32.368 116.772 32.184 117.252 31.816C117.732 31.448 117.972 30.984 117.972 30.424C117.972 29.848 117.716 29.424 117.204 29.152C116.692 28.864 115.9 28.584 114.828 28.312C113.852 28.056 113.052 27.8 112.428 27.544C111.82 27.272 111.292 26.88 110.844 26.368C110.412 25.84 110.196 25.152 110.196 24.304C110.196 23.632 110.396 23.016 110.796 22.456C111.196 21.896 111.764 21.456 112.5 21.136C113.236 20.8 114.076 20.632 115.02 20.632C116.476 20.632 117.652 21 118.548 21.736C119.444 22.472 119.924 23.48 119.988 24.76H117.804C117.756 24.072 117.476 23.52 116.964 23.104C116.468 22.688 115.796 22.48 114.948 22.48C114.164 22.48 113.54 22.648 113.076 22.984C112.612 23.32 112.38 23.76 112.38 24.304C112.38 24.736 112.516 25.096 112.788 25.384C113.076 25.656 113.428 25.88 113.844 26.056C114.276 26.216 114.868 26.4 115.62 26.608C116.564 26.864 117.332 27.12 117.924 27.376C118.516 27.616 119.02 27.984 119.436 28.48C119.868 28.976 120.092 29.624 120.108 30.424C120.108 31.144 119.908 31.792 119.508 32.368C119.108 32.944 118.54 33.4 117.804 33.736C117.084 34.056 116.252 34.216 115.308 34.216ZM125.855 22.648V30.4C125.855 31.04 125.991 31.496 126.263 31.768C126.535 32.024 127.007 32.152 127.679 32.152H129.287V34H127.319C126.103 34 125.191 33.72 124.583 33.16C123.975 32.6 123.671 31.68 123.671 30.4V22.648H121.967V20.848H123.671V17.536H125.855V20.848H129.287V22.648H125.855ZM137.67 34.216C136.438 34.216 135.318 33.936 134.31 33.376C133.318 32.816 132.534 32.024 131.958 31C131.398 29.96 131.118 28.76 131.118 27.4C131.118 26.056 131.406 24.872 131.982 23.848C132.574 22.808 133.374 22.016 134.382 21.472C135.39 20.912 136.518 20.632 137.766 20.632C139.014 20.632 140.142 20.912 141.15 21.472C142.158 22.016 142.95 22.8 143.526 23.824C144.118 24.848 144.414 26.04 144.414 27.4C144.414 28.76 144.11 29.96 143.502 31C142.91 32.024 142.102 32.816 141.078 33.376C140.054 33.936 138.918 34.216 137.67 34.216ZM137.67 32.296C138.454 32.296 139.19 32.112 139.878 31.744C140.566 31.376 141.118 30.824 141.534 30.088C141.966 29.352 142.182 28.456 142.182 27.4C142.182 26.344 141.974 25.448 141.558 24.712C141.142 23.976 140.598 23.432 139.926 23.08C139.254 22.712 138.526 22.528 137.742 22.528C136.942 22.528 136.206 22.712 135.534 23.08C134.878 23.432 134.35 23.976 133.95 24.712C133.55 25.448 133.35 26.344 133.35 27.4C133.35 28.472 133.542 29.376 133.926 30.112C134.326 30.848 134.854 31.4 135.51 31.768C136.166 32.12 136.886 32.296 137.67 32.296ZM149.469 22.984C149.853 22.232 150.397 21.648 151.101 21.232C151.821 20.816 152.693 20.608 153.717 20.608V22.864H153.141C150.693 22.864 149.469 24.192 149.469 26.848V34H147.285V20.848H149.469V22.984ZM168.238 26.92C168.238 27.336 168.214 27.776 168.166 28.24H157.654C157.734 29.536 158.174 30.552 158.974 31.288C159.79 32.008 160.774 32.368 161.926 32.368C162.87 32.368 163.654 32.152 164.278 31.72C164.918 31.272 165.366 30.68 165.622 29.944H167.974C167.622 31.208 166.918 32.24 165.862 33.04C164.806 33.824 163.494 34.216 161.926 34.216C160.678 34.216 159.558 33.936 158.566 33.376C157.59 32.816 156.822 32.024 156.262 31C155.702 29.96 155.422 28.76 155.422 27.4C155.422 26.04 155.694 24.848 156.238 23.824C156.782 22.8 157.542 22.016 158.518 21.472C159.51 20.912 160.646 20.632 161.926 20.632C163.174 20.632 164.278 20.904 165.238 21.448C166.198 21.992 166.934 22.744 167.446 23.704C167.974 24.648 168.238 25.72 168.238 26.92ZM165.982 26.464C165.982 25.632 165.798 24.92 165.43 24.328C165.062 23.72 164.558 23.264 163.918 22.96C163.294 22.64 162.598 22.48 161.83 22.48C160.726 22.48 159.782 22.832 158.998 23.536C158.23 24.24 157.79 25.216 157.678 26.464H165.982Z" fill="white"/>
</svg>
