<svg width="36" height="43" viewBox="0 0 36 43" fill="none" xmlns="http://www.w3.org/2000/svg">
<path d="M29.5246 23.8995C28.3443 17.8825 33.9824 14.3536 33.9824 14.3536C33.9824 14.3536 31.7857 11.1343 28.094 10.3061C24.404 9.47615 22.5573 10.5131 20.7141 11.2909C18.8691 12.0706 17.9485 12.0706 17.9485 12.0706C15.286 12.0706 13.3397 9.21502 8.26701 10.5151C4.77227 11.4084 1.09333 15.495 0.42863 20.3725C-0.236071 25.2517 1.19832 31.4776 3.96391 36.3028C6.7295 41.1318 9.54673 42.9465 11.5463 42.9988C13.5459 43.0491 15.5419 41.5477 17.9485 41.1821C20.3569 40.8202 21.8391 42.0662 24.2015 42.7395C26.5546 43.411 27.3795 42.788 30.0899 40.4528C32.8076 38.1176 35.2676 31.4199 35.2676 31.4199C35.2676 31.4199 30.7049 29.9202 29.5246 23.8995Z" fill="#333333"/>
<path d="M24.2489 6.22801C27.0662 3.78382 26.1119 0 26.1119 0C26.1119 0 22.1557 0.591235 19.505 2.93918C16.8562 5.28885 17.2947 9 17.2947 9C17.2947 9 21.4315 8.67063 24.2489 6.22801Z" fill="#333333"/>
</svg>
