<svg viewBox="0 0 392 440" fill="none" xmlns="http://www.w3.org/2000/svg">
    <path d="M96.6825 343.022L119.012 320.754C123.049 316.728 123.263 310.284 119.541 305.966C116.629 302.588 113.884 299.063 111.343 295.382C96.4623 273.999 87.7324 248.004 87.7324 219.973H0.0869141C0.0869141 267.302 15.015 311.059 40.3628 346.928C66.6027 383.987 103.952 412.563 147.601 427.744L172.102 352.294H100.514C95.6756 352.294 93.2556 346.44 96.6825 343.022Z" fill="#0AD982"/>
    <path d="M256.379 347.227C244.822 350.55 232.62 352.336 220.021 352.336C219.399 352.336 218.786 352.304 218.166 352.295H172.104L147.603 427.745C170.271 435.683 194.624 439.999 220.021 439.999C242.093 439.999 263.372 436.724 283.462 430.672H283.511C325.29 418.122 361.78 393.444 389.004 360.763C393.031 355.927 392.153 348.694 387.064 344.994L333.583 306.102C329.078 302.826 322.812 303.48 319.122 307.653C302.641 326.294 280.983 340.251 256.379 347.227Z" fill="#19AAEB"/>
    <path d="M111.343 144.616C126.719 122.341 148.84 105.076 174.683 95.6498L147.601 12.2536C103.952 27.4342 66.5522 56.0599 40.3628 93.0699C14.9665 128.939 0.0869141 172.745 0.0869141 219.975H87.7324C87.7324 191.944 96.4623 165.998 111.343 144.616Z" fill="#FFB91B"/>
    <path d="M220.021 87.6629C232.62 87.6629 244.821 89.4486 256.379 92.7732C280.984 99.7481 302.643 113.706 319.124 132.348C322.813 136.521 329.078 137.176 333.583 133.901L387.107 95.0053C392.199 91.3044 393.079 84.0686 389.049 79.2325C361.818 46.5538 325.285 21.8772 283.462 9.32748C263.372 3.27484 242.093 0.000305176 220.021 0.000305176C194.624 0.000305176 170.271 4.31633 147.603 12.2542L174.684 95.6504C188.821 90.4911 204.099 87.6629 220.021 87.6629Z" fill="#FE004E"/>
</svg>