<svg width="38" height="43" viewBox="0 0 38 43" fill="none" xmlns="http://www.w3.org/2000/svg">
<path d="M35.4392 17.396L6.88292 0.623039C6.18899 0.215388 5.39947 0 4.60008 0C3.79028 0 2.99202 0.220739 2.29158 0.638328C0.878057 1.48096 0 3.04754 0 4.72688V38.2729C0 39.9521 0.878057 41.5187 2.29121 42.3613C2.99164 42.7793 3.7901 43 4.5999 43C5.39891 43 6.18844 42.7844 6.88273 42.3768L35.4387 25.6036C36.8682 24.7639 37.7561 23.1916 37.7561 21.4998C37.7561 19.808 36.8686 18.2357 35.4392 17.396ZM23.0648 13.4299L19.1439 19.0419L9.76539 5.61824L23.0648 13.4299ZM4.42004 40.1168C4.16505 40.0914 3.9149 40.015 3.69152 39.8817C3.13541 39.5502 2.78985 38.9336 2.78985 38.2729V4.72669C2.78985 4.066 3.13541 3.44946 3.69171 3.11787C3.91434 2.98504 4.16245 2.90592 4.41744 2.87897L17.4267 21.4998L4.42004 40.1168ZM9.76539 37.3816L19.1439 23.9578L23.0648 29.5697L9.76539 37.3816ZM34.0545 23.1145L25.4997 28.1394L20.861 21.4998L25.4997 14.8602L34.0545 19.8851C34.617 20.2155 34.9664 20.8342 34.9664 21.4998C34.9664 22.1655 34.6171 22.7843 34.0545 23.1145Z" fill="#333333"/>
</svg>
