<?xml version="1.0" standalone="no"?>
<!DOCTYPE svg PUBLIC "-//W3C//DTD SVG 20010904//EN"
 "http://www.w3.org/TR/2001/REC-SVG-20010904/DTD/svg10.dtd">
<svg version="1.0" xmlns="http://www.w3.org/2000/svg"
 width="676.000000pt" height="676.000000pt" viewBox="0 0 676.000000 676.000000"
 preserveAspectRatio="xMidYMid meet">
<metadata>
Created by potrace 1.11, written by Peter Selinger 2001-2013
</metadata>
<g transform="translate(0.000000,676.000000) scale(0.100000,-0.100000)"
fill="#000000" stroke="none">
<path d="M3728 6276 c-1 -2 -73 -6 -158 -10 -85 -4 -168 -9 -185 -11 -16 -3
-48 -7 -70 -10 -22 -2 -67 -9 -100 -15 -33 -7 -70 -13 -83 -15 -36 -5 -122
-26 -192 -46 -36 -11 -76 -21 -88 -24 -12 -2 -27 -7 -32 -10 -5 -3 -18 -8 -29
-10 -33 -6 -244 -91 -342 -138 -105 -51 -264 -140 -291 -164 -10 -9 -18 -12
-18 -7 0 5 -4 4 -8 -2 -4 -5 -24 -20 -45 -33 -21 -13 -43 -28 -50 -35 -6 -6
-28 -22 -47 -36 -19 -13 -51 -37 -70 -52 -19 -16 -40 -32 -45 -36 -24 -17
-170 -149 -219 -198 -70 -71 -164 -176 -218 -244 -23 -30 -46 -56 -50 -58 -5
-2 -8 -10 -8 -17 0 -7 -4 -15 -8 -17 -12 -4 -132 -184 -132 -197 0 -5 -6 -14
-12 -18 -19 -12 -184 -328 -192 -368 -2 -5 -10 -28 -20 -50 -52 -116 -135
-407 -161 -565 -3 -19 -8 -48 -11 -65 -3 -16 -7 -46 -9 -65 -3 -19 -8 -64 -12
-100 -17 -137 -7 -613 14 -684 3 -11 7 -34 9 -50 1 -17 10 -67 19 -111 28
-138 30 -146 55 -230 12 -38 23 -77 25 -85 2 -8 4 -16 5 -17 2 -2 3 -6 4 -10
4 -19 30 -91 43 -123 26 -62 32 -74 55 -130 12 -30 32 -74 43 -97 19 -41 20
-60 20 -688 l-1 -645 643 0 642 0 58 -25 c32 -14 66 -30 75 -35 49 -27 297
-114 428 -151 66 -18 178 -42 250 -54 25 -4 52 -9 60 -10 183 -33 631 -39 790
-11 14 2 45 7 70 11 122 17 113 15 256 49 170 41 367 109 512 177 34 16 64 29
66 29 3 0 207 112 255 141 14 7 34 22 45 32 11 9 26 17 33 17 7 0 13 5 13 10
0 6 6 10 14 10 8 0 16 4 18 8 2 5 26 23 53 42 28 19 55 39 62 45 7 5 18 15 25
20 85 65 258 221 258 233 0 3 -25 29 -55 57 -30 28 -136 130 -237 226 -325
311 -382 366 -432 412 l-49 45 -40 -36 c-22 -21 -45 -42 -51 -47 -6 -6 -29
-24 -51 -40 -22 -17 -42 -32 -45 -35 -13 -14 -151 -101 -200 -126 -30 -16 -56
-32 -58 -36 -2 -5 -10 -8 -17 -8 -7 0 -26 -7 -42 -15 -48 -25 -121 -55 -135
-55 -8 0 -18 -4 -24 -8 -9 -9 -136 -48 -183 -57 -12 -2 -30 -6 -39 -9 -18 -6
-68 -15 -117 -22 -208 -28 -471 -20 -645 22 -14 3 -41 9 -60 14 -47 10 -196
58 -240 77 -295 124 -517 288 -724 533 -49 57 -166 223 -166 235 0 4 -9 20
-21 36 -11 16 -17 29 -12 29 4 0 3 4 -2 8 -10 7 -75 135 -75 148 0 3 -7 20
-14 37 -29 62 -77 225 -90 302 -6 35 -15 87 -23 130 -3 17 -6 111 -8 210 -3
163 3 238 29 380 32 173 143 454 230 584 20 29 36 55 36 58 0 7 112 156 149
198 40 44 143 146 187 186 38 33 179 139 186 139 3 0 30 16 59 36 101 68 378
186 489 208 235 47 266 51 460 50 151 0 279 -12 370 -34 19 -5 46 -11 60 -14
55 -11 71 -15 83 -23 6 -4 20 -9 30 -10 23 -4 228 -83 242 -93 6 -5 39 -23 75
-42 81 -43 134 -77 233 -151 71 -53 101 -80 193 -169 l32 -30 121 124 c67 67
234 238 371 378 138 140 250 259 250 264 0 8 -63 72 -156 157 -21 19 -75 63
-119 97 -44 34 -84 66 -90 70 -62 49 -270 178 -355 220 -25 13 -52 27 -60 32
-58 35 -307 135 -430 172 -86 26 -160 46 -195 53 -11 2 -42 9 -70 15 -73 15
-107 22 -135 25 -14 1 -41 5 -60 9 -47 9 -104 14 -235 21 -60 4 -115 8 -122
10 -6 2 -13 2 -15 1z"/>
</g>
</svg>
